<svg xmlns="http://www.w3.org/2000/svg" style="display: none" aria-hidden="true">
  <!-- Icons referenced from the extension's own HTML pages. Icons rendered
       from JavaScript live in src/core/ui/icons.js instead, because the
       content script draws them into file:// pages that cannot load this
       sprite. "arrow-right" is needed in both places. -->

  <!-- 16px line icons -->
  <symbol id="arrow-right" viewBox="0 0 16 16" fill="none" stroke="currentColor" stroke-width="1.5" stroke-linecap="round" stroke-linejoin="round">
    <path d="M6 3.5 10.5 8 6 12.5" />
  </symbol>
  <symbol id="arrow-left" viewBox="0 0 16 16" fill="none" stroke="currentColor" stroke-width="1.5" stroke-linecap="round" stroke-linejoin="round">
    <path d="M10 3.5 5.5 8 10 12.5" />
  </symbol>

  <!-- 24px line icons -->
  <symbol id="sidebar-collapse" viewBox="0 0 24 24" fill="none" stroke="currentColor" stroke-width="1.7" stroke-linecap="round" stroke-linejoin="round">
    <rect x="4" y="5" width="16" height="14" rx="2" />
    <path d="M9 5v14M16 9l-3 3 3 3" />
  </symbol>
  <symbol id="sidebar-expand" viewBox="0 0 24 24" fill="none" stroke="currentColor" stroke-width="1.7" stroke-linecap="round" stroke-linejoin="round">
    <rect x="4" y="5" width="16" height="14" rx="2" />
    <path d="M9 5v14M13 9l3 3-3 3" />
  </symbol>
  <symbol id="open-file" viewBox="0 0 24 24" fill="none" stroke="currentColor" stroke-width="1.7" stroke-linecap="round" stroke-linejoin="round">
    <path d="M6 3.75h7l4.5 4.5V20.25H6z" />
    <path d="M13 3.75v4.5h4.5M12 12v5M9.5 14.5h5" />
  </symbol>
  <symbol id="open-folder" viewBox="0 0 24 24" fill="none" stroke="currentColor" stroke-width="1.7" stroke-linecap="round" stroke-linejoin="round">
    <path d="M3 7.5a2 2 0 0 1 2-2h4.4l2 2H19a2 2 0 0 1 2 2v7.8a2 2 0 0 1-2 2H5a2 2 0 0 1-2-2z" />
    <path d="M12 11.25v5M9.5 13.75h5" />
  </symbol>
  <symbol id="open-url" viewBox="0 0 24 24" fill="none" stroke="currentColor" stroke-width="1.7" stroke-linecap="round" stroke-linejoin="round">
    <path d="M10 13a5 5 0 0 0 7 0l3-3a5 5 0 0 0-7-7l-1 1M14 11a5 5 0 0 0-7 0l-3 3a5 5 0 0 0 7 7l1-1" />
  </symbol>
  <symbol id="files" viewBox="0 0 24 24" fill="none" stroke="currentColor" stroke-width="1.7" stroke-linecap="round" stroke-linejoin="round">
    <path d="M3 7a2 2 0 0 1 2-2h4l2 2h8a2 2 0 0 1 2 2v8a2 2 0 0 1-2 2H5a2 2 0 0 1-2-2z" />
  </symbol>
  <symbol id="outline" viewBox="0 0 24 24" fill="none" stroke="currentColor" stroke-width="1.7" stroke-linecap="round" stroke-linejoin="round">
    <path d="M8 6h13M8 12h13M8 18h13M3 6h.01M3 12h.01M3 18h.01" />
  </symbol>
  <symbol id="settings" viewBox="0 0 24 24" fill="none" stroke="currentColor" stroke-width="1.7" stroke-linecap="round" stroke-linejoin="round">
    <circle cx="12" cy="12" r="3" />
    <path d="M19.4 15a1.7 1.7 0 0 0 .35 1.86l.04.04a2 2 0 1 1-2.83 2.83l-.04-.04a1.7 1.7 0 0 0-1.86-.35 1.7 1.7 0 0 0-1.03 1.56V21a2 2 0 1 1-4 0v-.07A1.7 1.7 0 0 0 9 19.4a1.7 1.7 0 0 0-1.86.35l-.04.04a2 2 0 1 1-2.83-2.83l.04-.04A1.7 1.7 0 0 0 4.6 15a1.7 1.7 0 0 0-1.56-1.03H3a2 2 0 1 1 0-4h.07A1.7 1.7 0 0 0 4.6 9a1.7 1.7 0 0 0-.35-1.86l-.04-.04a2 2 0 1 1 2.83-2.83l.04.04A1.7 1.7 0 0 0 9 4.6a1.7 1.7 0 0 0 1.03-1.56V3a2 2 0 1 1 4 0v.07A1.7 1.7 0 0 0 15 4.6a1.7 1.7 0 0 0 1.86-.35l.04-.04a2 2 0 1 1 2.83 2.83l-.04.04A1.7 1.7 0 0 0 19.4 9a1.7 1.7 0 0 0 1.56 1.03H21a2 2 0 1 1 0 4h-.07A1.7 1.7 0 0 0 19.4 15z" />
  </symbol>
  <symbol id="popout" viewBox="0 0 24 24" fill="none" stroke="currentColor" stroke-width="2" stroke-linecap="round" stroke-linejoin="round">
    <path d="M11 5.5H5.5V18.5H18.5V13" />
    <path d="M14 4.5H19.5V10" />
    <path d="M19.5 4.5 11 13" />
  </symbol>
  <symbol id="reload" viewBox="0 0 24 24" fill="none" stroke="currentColor" stroke-width="2" stroke-linecap="round" stroke-linejoin="round">
    <path d="M21 12a9 9 0 0 1-9 9 9.75 9.75 0 0 1-6.74-2.74L3 16" />
    <path d="M8 16H3v5" />
    <path d="M3 12a9 9 0 0 1 9-9 9.75 9.75 0 0 1 6.74 2.74L21 8" />
    <path d="M21 3v5h-5" />
  </symbol>
  <symbol id="pin" viewBox="0 0 24 24" fill="none" stroke="currentColor" stroke-width="2" stroke-linecap="round" stroke-linejoin="round">
    <path d="M12 17v5" />
    <path d="M9 10.76a2 2 0 0 1-1.11 1.79l-1.78.9A2 2 0 0 0 5 15.24V16a1 1 0 0 0 1 1h12a1 1 0 0 0 1-1v-.76a2 2 0 0 0-1.11-1.79l-1.78-.9A2 2 0 0 1 15 10.76V7a1 1 0 0 1 1-1 2 2 0 0 0 0-4H8a2 2 0 0 0 0 4 1 1 0 0 1 1 1Z" />
  </symbol>
  <symbol id="bolt" viewBox="0 0 24 24" fill="none" stroke="currentColor" stroke-width="1.7" stroke-linecap="round" stroke-linejoin="round">
    <path d="M13 2 4 14h7l-1 8 9-12h-7l1-8z" />
  </symbol>
  <symbol id="info" viewBox="0 0 24 24" fill="none" stroke="currentColor" stroke-width="1.7" stroke-linecap="round" stroke-linejoin="round">
    <circle cx="12" cy="12" r="9" />
    <path d="M12 16v-4" />
    <path d="M12 8h.01" />
  </symbol>
  <symbol id="code" viewBox="0 0 24 24" fill="none" stroke="currentColor" stroke-width="1.7" stroke-linecap="round" stroke-linejoin="round">
    <polyline points="16 18 22 12 16 6" />
    <polyline points="8 6 2 12 8 18" />
  </symbol>
  <symbol id="eye" viewBox="0 0 24 24" fill="none" stroke="currentColor" stroke-width="1.7" stroke-linecap="round" stroke-linejoin="round">
    <path d="M2 12s3.5-7 10-7 10 7 10 7-3.5 7-10 7-10-7-10-7Z" />
    <circle cx="12" cy="12" r="3" />
  </symbol>

  <!-- 48px line icons -->
  <symbol id="drop-file" viewBox="0 0 48 48" fill="none" stroke="currentColor" stroke-width="3.5" stroke-linecap="round" stroke-linejoin="round">
    <path d="M42 30v8a4 4 0 0 1-4 4H10a4 4 0 0 1-4-4v-8" />
    <path d="M14 22 24 32 34 22" />
    <path d="M24 32V6" />
  </symbol>
</svg>
